<svg width="222" height="67" viewBox="0 0 222 67" fill="none" xmlns="http://www.w3.org/2000/svg">
<path d="M50.8883 25.284C52.1283 25.284 53.1927 25.377 54.0813 25.563C54.9907 25.7283 55.8793 26.0177 56.7473 26.431C56.892 26.5137 56.9747 26.5963 56.9953 26.679C57.0367 26.741 57.0677 26.896 57.0883 27.144L57.4913 30.926C57.4913 30.988 57.4293 31.0293 57.3053 31.05C57.202 31.0707 57.14 31.0397 57.1193 30.957C56.1067 27.5057 53.9677 25.78 50.7023 25.78C49.0283 25.78 47.5507 26.1623 46.2693 26.927C44.988 27.6917 43.9857 28.787 43.2623 30.213C42.5597 31.6183 42.2083 33.2613 42.2083 35.142C42.2083 36.9607 42.5907 38.614 43.3553 40.102C44.1407 41.59 45.1947 42.7577 46.5173 43.605C47.84 44.4523 49.2867 44.876 50.8573 44.876C52.49 44.876 53.823 44.473 54.8563 43.667C55.9103 42.8403 56.7473 41.5693 57.3673 39.854C57.388 39.792 57.45 39.7713 57.5533 39.792C57.6567 39.8127 57.7083 39.8437 57.7083 39.885L57.3983 43.357C57.357 43.605 57.3157 43.7703 57.2743 43.853C57.2537 43.915 57.171 43.9873 57.0263 44.07C55.9723 44.566 54.97 44.907 54.0193 45.093C53.0687 45.2997 52.0043 45.403 50.8263 45.403C48.6563 45.403 46.7137 44.9793 44.9983 44.132C43.3037 43.264 41.9707 42.0653 40.9993 40.536C40.0487 38.986 39.5733 37.219 39.5733 35.235C39.5733 33.2923 40.059 31.5667 41.0303 30.058C42.0017 28.5493 43.345 27.3817 45.0603 26.555C46.7963 25.7077 48.739 25.284 50.8883 25.284ZM70.002 45.372C68.08 45.372 66.3647 44.9277 64.856 44.039C63.368 43.1297 62.2107 41.9103 61.384 40.381C60.578 38.831 60.175 37.1467 60.175 35.328C60.175 33.1993 60.7123 31.3807 61.787 29.872C62.8617 28.3427 64.236 27.1957 65.91 26.431C67.6047 25.6663 69.3303 25.284 71.087 25.284C73.0503 25.284 74.776 25.749 76.264 26.679C77.752 27.5883 78.8887 28.7973 79.674 30.306C80.48 31.8147 80.883 33.4163 80.883 35.111C80.883 36.9917 80.387 38.7173 79.395 40.288C78.403 41.8587 77.07 43.0987 75.396 44.008C73.7427 44.9173 71.9447 45.372 70.002 45.372ZM71.087 44.69C72.451 44.69 73.6703 44.349 74.745 43.667C75.8403 42.985 76.698 41.993 77.318 40.691C77.9587 39.3683 78.279 37.7977 78.279 35.979C78.279 34.057 77.9277 32.3417 77.225 30.833C76.543 29.3243 75.5613 28.1463 74.28 27.299C72.9987 26.4517 71.5107 26.028 69.816 26.028C67.6047 26.028 65.879 26.7617 64.639 28.229C63.399 29.6757 62.779 31.6803 62.779 34.243C62.779 36.1857 63.1303 37.9527 63.833 39.544C64.5357 41.1353 65.5173 42.396 66.778 43.326C68.0387 44.2353 69.475 44.69 71.087 44.69ZM103.687 25.625C103.749 25.625 103.78 25.687 103.78 25.811C103.78 25.935 103.749 25.997 103.687 25.997C102.84 25.997 102.21 26.2553 101.796 26.772C101.404 27.268 101.207 28.0533 101.207 29.128V45.372C101.207 45.434 101.156 45.4753 101.052 45.496C100.949 45.5167 100.877 45.5063 100.835 45.465L86.3894 28.167L86.2964 28.043V41.528C86.2964 42.6027 86.4927 43.388 86.8854 43.884C87.2781 44.38 87.8877 44.628 88.7144 44.628C88.7764 44.628 88.8074 44.69 88.8074 44.814C88.8074 44.938 88.7764 45 88.7144 45C88.2184 45 87.8257 44.9897 87.5364 44.969L85.9554 44.938L84.3124 44.969C84.0024 44.9897 83.5581 45 82.9794 45C82.9381 45 82.9174 44.938 82.9174 44.814C82.9174 44.69 82.9381 44.628 82.9794 44.628C83.8681 44.628 84.5087 44.38 84.9014 43.884C85.3147 43.388 85.5214 42.6027 85.5214 41.528V27.237C84.6741 26.4103 83.8164 25.997 82.9484 25.997C82.8864 25.997 82.8554 25.935 82.8554 25.811C82.8554 25.687 82.8864 25.625 82.9484 25.625L84.0954 25.656C84.3434 25.6767 84.6947 25.687 85.1494 25.687L86.6064 25.656C86.7717 25.6353 86.9887 25.625 87.2574 25.625C87.4227 25.625 87.5364 25.6663 87.5984 25.749C87.6811 25.811 87.8051 25.966 87.9704 26.214C88.2184 26.586 88.4664 26.927 88.7144 27.237L100.432 41.435V29.128C100.432 28.0533 100.246 27.268 99.8744 26.772C99.5024 26.2553 98.8927 25.997 98.0454 25.997C98.0041 25.997 97.9834 25.935 97.9834 25.811C97.9834 25.687 98.0041 25.625 98.0454 25.625L99.2544 25.656C99.9157 25.6973 100.443 25.718 100.835 25.718C101.228 25.718 101.755 25.6973 102.416 25.656L103.687 25.625ZM109.718 26.214C108.437 26.214 107.445 26.5653 106.742 27.268C106.06 27.95 105.564 29.0763 105.254 30.647C105.233 30.709 105.161 30.74 105.037 30.74C104.934 30.7193 104.882 30.6883 104.882 30.647C104.965 30.0683 105.058 29.1383 105.161 27.857C105.264 26.5757 105.316 25.6043 105.316 24.943C105.316 24.8397 105.378 24.788 105.502 24.788C105.626 24.788 105.688 24.8397 105.688 24.943C105.688 25.3977 106.246 25.625 107.362 25.625C109.139 25.687 111.216 25.718 113.593 25.718C114.812 25.718 116.104 25.6973 117.468 25.656L119.576 25.625C120.32 25.625 120.868 25.5733 121.219 25.47C121.591 25.3667 121.829 25.16 121.932 24.85C121.953 24.7673 122.015 24.726 122.118 24.726C122.221 24.726 122.273 24.7673 122.273 24.85C122.211 25.4493 122.149 26.3793 122.087 27.64C122.025 28.88 121.994 29.8823 121.994 30.647C121.994 30.6883 121.932 30.709 121.808 30.709C121.705 30.709 121.643 30.6883 121.622 30.647C121.539 29.0557 121.167 27.919 120.506 27.237C119.865 26.555 118.863 26.214 117.499 26.214C116.672 26.214 116.073 26.2553 115.701 26.338C115.35 26.4207 115.102 26.5963 114.957 26.865C114.833 27.1337 114.771 27.578 114.771 28.198V42.489C114.771 43.1297 114.833 43.5947 114.957 43.884C115.102 44.1733 115.37 44.3697 115.763 44.473C116.176 44.5763 116.827 44.628 117.716 44.628C117.757 44.628 117.778 44.69 117.778 44.814C117.778 44.938 117.757 45 117.716 45C117.013 45 116.455 44.9897 116.042 44.969L113.593 44.938L111.237 44.969C110.824 44.9897 110.245 45 109.501 45C109.46 45 109.439 44.938 109.439 44.814C109.439 44.69 109.46 44.628 109.501 44.628C110.369 44.628 111.01 44.5763 111.423 44.473C111.836 44.3697 112.115 44.1733 112.26 43.884C112.405 43.574 112.477 43.109 112.477 42.489V28.136C112.477 27.5367 112.405 27.113 112.26 26.865C112.136 26.5963 111.888 26.4207 111.516 26.338C111.165 26.2553 110.565 26.214 109.718 26.214ZM133.714 45.372C131.792 45.372 130.077 44.9277 128.568 44.039C127.08 43.1297 125.923 41.9103 125.096 40.381C124.29 38.831 123.887 37.1467 123.887 35.328C123.887 33.1993 124.425 31.3807 125.499 29.872C126.574 28.3427 127.948 27.1957 129.622 26.431C131.317 25.6663 133.043 25.284 134.799 25.284C136.763 25.284 138.488 25.749 139.976 26.679C141.464 27.5883 142.601 28.7973 143.386 30.306C144.192 31.8147 144.595 33.4163 144.595 35.111C144.595 36.9917 144.099 38.7173 143.107 40.288C142.115 41.8587 140.782 43.0987 139.108 44.008C137.455 44.9173 135.657 45.372 133.714 45.372ZM134.799 44.69C136.163 44.69 137.383 44.349 138.457 43.667C139.553 42.985 140.41 41.993 141.03 40.691C141.671 39.3683 141.991 37.7977 141.991 35.979C141.991 34.057 141.64 32.3417 140.937 30.833C140.255 29.3243 139.274 28.1463 137.992 27.299C136.711 26.4517 135.223 26.028 133.528 26.028C131.317 26.028 129.591 26.7617 128.351 28.229C127.111 29.6757 126.491 31.6803 126.491 34.243C126.491 36.1857 126.843 37.9527 127.545 39.544C128.248 41.1353 129.23 42.396 130.49 43.326C131.751 44.2353 133.187 44.69 134.799 44.69ZM150.133 29.159C150.133 29.9443 150.329 30.6367 150.722 31.236C151.114 31.8353 151.59 32.3417 152.148 32.755C152.706 33.1683 153.491 33.6747 154.504 34.274C155.558 34.9147 156.384 35.4623 156.984 35.917C157.583 36.3717 158.089 36.94 158.503 37.622C158.937 38.304 159.154 39.11 159.154 40.04C159.154 41.0527 158.895 41.962 158.379 42.768C157.883 43.574 157.149 44.2147 156.178 44.69C155.206 45.1447 154.059 45.372 152.737 45.372C151.063 45.372 149.575 45 148.273 44.256C148.169 44.194 148.097 44.1217 148.056 44.039C148.014 43.9563 147.983 43.8323 147.963 43.667L147.622 39.327C147.601 39.2443 147.642 39.1927 147.746 39.172C147.87 39.1513 147.942 39.1823 147.963 39.265C148.376 40.7943 149.027 42.1067 149.916 43.202C150.804 44.2767 151.982 44.814 153.45 44.814C154.462 44.814 155.31 44.5453 155.992 44.008C156.674 43.4707 157.015 42.5923 157.015 41.373C157.015 40.443 156.808 39.6473 156.395 38.986C155.981 38.304 155.475 37.7357 154.876 37.281C154.297 36.8057 153.501 36.2683 152.489 35.669C151.476 35.0283 150.691 34.5013 150.133 34.088C149.575 33.654 149.099 33.1167 148.707 32.476C148.314 31.8147 148.118 31.0397 148.118 30.151C148.118 29.097 148.397 28.2083 148.955 27.485C149.513 26.741 150.246 26.1933 151.156 25.842C152.065 25.47 153.026 25.284 154.039 25.284C155.32 25.284 156.55 25.5217 157.728 25.997C158.038 26.1417 158.193 26.3277 158.193 26.555L158.379 30.275C158.379 30.3577 158.317 30.4093 158.193 30.43C158.089 30.4507 158.027 30.4197 158.007 30.337C157.8 29.2417 157.335 28.2083 156.612 27.237C155.888 26.2657 154.845 25.78 153.481 25.78C152.385 25.78 151.548 26.1003 150.97 26.741C150.412 27.3817 150.133 28.1877 150.133 29.159ZM171.557 45.372C169.635 45.372 167.92 44.9277 166.411 44.039C164.923 43.1297 163.766 41.9103 162.939 40.381C162.133 38.831 161.73 37.1467 161.73 35.328C161.73 33.1993 162.268 31.3807 163.342 29.872C164.417 28.3427 165.791 27.1957 167.465 26.431C169.16 25.6663 170.886 25.284 172.642 25.284C174.606 25.284 176.331 25.749 177.819 26.679C179.307 27.5883 180.444 28.7973 181.229 30.306C182.035 31.8147 182.438 33.4163 182.438 35.111C182.438 36.9917 181.942 38.7173 180.95 40.288C179.958 41.8587 178.625 43.0987 176.951 44.008C175.298 44.9173 173.5 45.372 171.557 45.372ZM172.642 44.69C174.006 44.69 175.226 44.349 176.3 43.667C177.396 42.985 178.253 41.993 178.873 40.691C179.514 39.3683 179.834 37.7977 179.834 35.979C179.834 34.057 179.483 32.3417 178.78 30.833C178.098 29.3243 177.117 28.1463 175.835 27.299C174.554 26.4517 173.066 26.028 171.371 26.028C169.16 26.028 167.434 26.7617 166.194 28.229C164.954 29.6757 164.334 31.6803 164.334 34.243C164.334 36.1857 164.686 37.9527 165.388 39.544C166.091 41.1353 167.073 42.396 168.333 43.326C169.594 44.2353 171.03 44.69 172.642 44.69Z" fill="#090074"/>
<path fill-rule="evenodd" clip-rule="evenodd" d="M197.675 24.6259C196.618 21.9581 196.463 20.3454 197.257 17.183C196.1 19.3277 195.729 20.7307 195.877 23.8201C195.553 22.023 195.431 20.9761 195.501 18.9218C192.344 25.754 192.606 29.5361 193.473 36.1613C191.764 32.5837 191.623 30.097 191.508 25.6437C188.5 36.7678 189.202 42.8627 191.717 47.8664H189C191.17 49.35 192.255 50.3451 193.891 52.4891L196.024 45.6187L198.866 35.6312L199.828 32.5671L200.79 29.503L201.73 26.4707C201.841 25.5236 201.854 24.9534 201.73 23.8201L201.605 21.1483C201.563 19.6483 201.647 18.7901 202.274 17.183C202.663 15.9668 203.8 14.2686 204.887 12.9208C206.866 11.2396 208.151 10.5856 210.593 9.65523C212.646 9.12759 213.848 8.90799 216.112 8.95547C215.424 9.90956 215.161 10.454 214.837 11.4364C214.52 12.5171 214.383 13.1124 214.147 14.1719L213.353 16.7589C212.338 19.5278 211.513 20.9421 209.444 23.1415C207.939 24.3916 207.031 24.9587 205.326 25.7921C203.875 26.2653 203.23 26.7779 202.399 28.1459L201.647 29.715L199.682 35.7584C198.277 41.2927 197.646 44.7435 196.777 49.4952C196.598 50.475 196.408 51.5102 196.2 52.6303C199.066 49.9407 200.838 48.9814 204.134 47.7816C203.269 47.2776 202.726 47.0798 201.5 47.1031C206.085 43.9376 207.62 41.9132 209.506 38.3242C207.01 40.6805 205.542 41.5401 202.775 42.0775C208.883 37.6745 209.685 34.4174 210.772 30.0033L210.772 30.0031C210.918 29.407 211.07 28.7898 211.241 28.1459C209.051 29.427 207.835 30.0107 205.765 30.0119C211.118 27.1879 212.863 22.8227 214.837 17.8191C215.437 16.5042 215.895 15.4176 216.306 14.443C216.825 13.2135 217.269 12.1621 217.826 11.0548C216.493 11.1134 218.396 8.70893 220 7.42872C216.433 6.91192 214.432 6.80477 210.865 7.42871C202.023 9.27505 197.817 14.7619 197.675 24.6259Z" fill="url(#paint0_linear_31_59)"/>
<path d="M192.742 55.1609C192.019 56.3313 191.555 56.9 190.547 57.6419C191.111 60.4812 191.313 62.0931 191.488 65C193.198 62.7177 194.2 61.4741 196.212 59.4443C195.767 58.1895 195.645 57.4628 195.71 56.1152L192.742 55.1609Z" fill="url(#paint1_linear_31_59)"/>
<path d="M192.742 55.1609C192.019 56.3313 191.555 56.9 190.547 57.6419C191.111 60.4812 191.313 62.0931 191.488 65C193.198 62.7177 194.2 61.4741 196.212 59.4443C195.767 58.1895 195.645 57.4628 195.71 56.1152L192.742 55.1609Z" fill="#262555"/>
<path d="M193.369 53.9947L192.846 53.8462L192.449 55.0973L192.742 55.1609L195.71 56.1152L196.233 56.2212L196.567 55.0125L195.835 54.758L193.369 53.9947Z" fill="#262555"/>
<path d="M193.891 52.4891L193.369 53.9947L195.835 54.758L196.17 52.6588C196.18 52.6493 196.19 52.6398 196.2 52.6303C196.408 51.5102 196.598 50.475 196.777 49.4952C197.646 44.7435 198.277 41.2927 199.682 35.7584L201.647 29.715L202.399 28.1459C203.23 26.7779 203.875 26.2653 205.326 25.7921C207.031 24.9587 207.939 24.3916 209.444 23.1415C211.513 20.9421 212.338 19.5278 213.353 16.7589L214.147 14.1719C214.383 13.1124 214.52 12.5171 214.837 11.4364C215.161 10.454 215.424 9.90956 216.112 8.95547C213.848 8.90799 212.646 9.12759 210.593 9.65523C208.151 10.5856 206.866 11.2396 204.887 12.9208C203.8 14.2686 202.663 15.9668 202.274 17.183C201.647 18.7901 201.563 19.6483 201.605 21.1483L201.73 23.8201C201.854 24.9534 201.841 25.5236 201.73 26.4707L200.79 29.503L199.828 32.5671L198.866 35.6312L196.024 45.6187L193.891 52.4891Z" fill="url(#paint2_linear_31_59)"/>
<path d="M193.891 52.4891C192.255 50.3451 191.17 49.35 189 47.8664H191.717C189.202 42.8627 188.5 36.7678 191.508 25.6437C191.623 30.097 191.764 32.5837 193.473 36.1613C192.606 29.5361 192.344 25.754 195.501 18.9218C195.431 20.9761 195.553 22.023 195.877 23.8201C195.729 20.7307 196.1 19.3277 197.257 17.183C196.463 20.3454 196.618 21.9581 197.675 24.6259C197.817 14.7619 202.023 9.27505 210.865 7.42871C214.432 6.80477 216.433 6.91192 220 7.42872C218.396 8.70893 216.493 11.1134 217.826 11.0548C217.269 12.1621 216.825 13.2135 216.306 14.443C215.895 15.4176 215.437 16.5042 214.837 17.8191C212.863 22.8227 211.118 27.1879 205.765 30.0119C207.835 30.0107 209.051 29.427 211.241 28.1459C211.07 28.7898 210.918 29.407 210.772 30.0031L210.772 30.0033C209.685 34.4174 208.883 37.6745 202.775 42.0775C205.542 41.5401 207.01 40.6805 209.506 38.3242C207.62 41.9132 206.085 43.9376 201.5 47.1031C202.726 47.0798 203.269 47.2776 204.134 47.7816C200.838 48.9814 199.066 49.9407 196.2 52.6303M193.891 52.4891L193.369 53.9947M193.891 52.4891L196.024 45.6187L198.866 35.6312L199.828 32.5671L200.79 29.503L201.73 26.4707C201.841 25.5236 201.854 24.9534 201.73 23.8201L201.605 21.1483C201.563 19.6483 201.647 18.7901 202.274 17.183C202.663 15.9668 203.8 14.2686 204.887 12.9208C206.866 11.2396 208.151 10.5856 210.593 9.65523C212.646 9.12759 213.848 8.90799 216.112 8.95547C215.424 9.90956 215.161 10.454 214.837 11.4364C214.52 12.5171 214.383 13.1124 214.147 14.1719L213.353 16.7589C212.338 19.5278 211.513 20.9421 209.444 23.1415C207.939 24.3916 207.031 24.9587 205.326 25.7921C203.875 26.2653 203.23 26.7779 202.399 28.1459L201.647 29.715L199.682 35.7584C198.277 41.2927 197.646 44.7435 196.777 49.4952C196.598 50.475 196.408 51.5102 196.2 52.6303M193.369 53.9947L192.846 53.8462L192.449 55.0973L192.742 55.1609M193.369 53.9947L195.835 54.758M192.742 55.1609C192.019 56.3313 191.555 56.9 190.547 57.6419C191.111 60.4812 191.313 62.0931 191.488 65C193.198 62.7177 194.2 61.4741 196.212 59.4443C195.767 58.1895 195.645 57.4628 195.71 56.1152M192.742 55.1609L195.71 56.1152M195.71 56.1152L196.233 56.2212L196.567 55.0125L195.835 54.758M195.835 54.758L196.17 52.6588C196.18 52.6493 196.19 52.6398 196.2 52.6303" stroke="#898989" stroke-opacity="0.5"/>
<defs>
<linearGradient id="paint0_linear_31_59" x1="204.49" y1="6.98341" x2="204.511" y2="65.0166" gradientUnits="userSpaceOnUse">
<stop offset="0.322917" stop-color="#B492DF"/>
<stop offset="1" stop-color="#1E1AFF"/>
</linearGradient>
<linearGradient id="paint1_linear_31_59" x1="204.49" y1="6.98341" x2="204.511" y2="65.0166" gradientUnits="userSpaceOnUse">
<stop offset="0.322917" stop-color="#B492DF"/>
<stop offset="1" stop-color="#1E1AFF"/>
</linearGradient>
<linearGradient id="paint2_linear_31_59" x1="214.461" y1="9.45977" x2="191.008" y2="64.7777" gradientUnits="userSpaceOnUse">
<stop stop-color="#110EA2"/>
<stop offset="1" stop-color="#262555"/>
</linearGradient>
</defs>
</svg>
