<svg width="28" height="28" viewBox="0 0 28 28" fill="none" xmlns="http://www.w3.org/2000/svg">
<path d="M3.06413 24.9315H5.20901L18.423 11.6986L16.2781 9.55069L3.06413 22.7836V24.9315ZM24.9726 9.47397L18.4613 3.03014L20.6062 0.882192C21.1935 0.294064 21.9151 0 22.771 0C23.6269 0 24.348 0.294064 24.9343 0.882192L27.0792 3.03014C27.6665 3.61826 27.9729 4.32811 27.9984 5.15967C28.0239 5.99123 27.7431 6.70057 27.1558 7.28767L24.9726 9.47397ZM1.53207 28C1.09798 28 0.733862 27.8527 0.439706 27.5581C0.145551 27.2636 -0.00101607 26.8994 5.30125e-06 26.4658V22.1315C5.30125e-06 21.9269 0.0383069 21.7285 0.11491 21.5362C0.191513 21.3439 0.306417 21.1716 0.459623 21.0192L16.2398 5.21644L22.7511 11.737L6.97088 27.5397C6.81767 27.6932 6.64557 27.8082 6.45457 27.8849C6.26358 27.9616 6.06543 28 5.86014 28H1.53207ZM17.3506 10.6247L16.2781 9.55069L18.423 11.6986L17.3506 10.6247Z" fill="#6D6DB3"/>
</svg>
