<svg width="50" height="88" viewBox="0 0 50 88" fill="none" xmlns="http://www.w3.org/2000/svg">
<path fill-rule="evenodd" clip-rule="evenodd" d="M14.8726 26.831C13.3044 22.9214 13.0746 20.5579 14.2522 15.9233C12.5356 19.0665 11.9844 21.1226 12.205 25.6501C11.7233 23.0165 11.5429 21.4823 11.6467 18.4715C6.96234 28.4842 7.35145 34.027 8.6379 43.7364C6.10169 38.4933 5.89263 34.8491 5.72218 28.3227C1.25852 44.6252 2.3 53.5574 6.03237 60.8905H2C5.22041 63.0646 6.82985 64.523 9.25826 67.6651L12.4221 57.5964L16.6406 42.9595L18.0674 38.469L19.4943 33.9785L20.8901 29.5347C21.0549 28.1467 21.0739 27.311 20.8901 25.6501L20.704 21.7345C20.6422 19.5363 20.7669 18.2786 21.6966 15.9233C22.2734 14.141 23.9617 11.6522 25.5738 9.67701C28.511 7.21316 30.4177 6.25471 34.0418 4.89128C37.0872 4.11802 38.8708 3.79619 42.2306 3.86577C41.2099 5.264 40.8198 6.06195 40.3385 7.50168C39.8689 9.08539 39.6649 9.9579 39.3149 11.5105L38.1362 15.3018C36.6308 19.3598 35.4067 21.4323 32.3358 24.6557C30.1025 26.4877 28.7552 27.3187 26.2252 28.5402C24.072 29.2336 23.1159 29.9849 21.8827 31.9897L20.766 34.2893L17.8503 43.146C15.7664 51.2566 14.8298 56.3137 13.5401 63.2774C13.2742 64.7134 12.9933 66.2304 12.6841 67.8721C16.9361 63.9303 19.5665 62.5244 24.4572 60.7662C23.1734 60.0275 22.3677 59.7377 20.5489 59.7717C27.3515 55.1326 29.63 52.1659 32.4289 46.9062C28.7251 50.3593 26.5464 51.6191 22.441 52.4067C31.5033 45.954 32.6934 41.1807 34.3063 34.7117L34.3064 34.7114C34.5242 33.8378 34.7497 32.9334 35.0034 31.9897C31.7528 33.8671 29.949 34.7226 26.8766 34.7244C34.8208 30.5857 37.4091 24.1884 40.3385 16.8556C41.2285 14.9285 41.9087 13.3362 42.5189 11.9078C43.2886 10.106 43.9469 8.56508 44.7741 6.94231C42.7953 7.02831 45.6196 3.50446 48 1.62829C42.7065 0.870918 39.7385 0.713894 34.445 1.62829C21.3247 4.33413 15.0839 12.3752 14.8726 26.831Z" fill="url(#paint0_linear_2_4)"/>
<path d="M7.55226 71.5807C6.47969 73.2958 5.79177 74.1294 4.29535 75.2166C5.13294 79.3776 5.43154 81.7399 5.69117 86C8.22882 82.6552 9.71569 80.8328 12.7013 77.8581C12.0412 76.0191 11.8599 74.9542 11.9568 72.9791L7.55226 71.5807Z" fill="url(#paint1_linear_2_4)"/>
<path d="M7.55226 71.5807C6.47969 73.2958 5.79177 74.1294 4.29535 75.2166C5.13294 79.3776 5.43154 81.7399 5.69117 86C8.22882 82.6552 9.71569 80.8328 12.7013 77.8581C12.0412 76.0191 11.8599 74.9542 11.9568 72.9791L7.55226 71.5807Z" fill="#262555"/>
<path d="M8.48281 69.8715L7.70735 69.6539L7.118 71.4874L7.55226 71.5807L11.9568 72.9791L12.7323 73.1345L13.2286 71.3631L12.143 70.9902L8.48281 69.8715Z" fill="#262555"/>
<path d="M9.25826 67.6651L8.48281 69.8715L12.143 70.9902L12.6392 67.9137C12.6542 67.8998 12.6692 67.8859 12.6841 67.8721C12.9933 66.2304 13.2742 64.7134 13.5401 63.2774C14.8298 56.3137 15.7664 51.2566 17.8503 43.146L20.766 34.2893L21.8827 31.9897C23.1159 29.9849 24.072 29.2336 26.2252 28.5402C28.7552 27.3187 30.1025 26.4877 32.3358 24.6557C35.4067 21.4323 36.6308 19.3598 38.1362 15.3018L39.3149 11.5105C39.6649 9.9579 39.8689 9.08539 40.3385 7.50168C40.8198 6.06195 41.2099 5.264 42.2306 3.86577C38.8708 3.79619 37.0872 4.11802 34.0418 4.89128C30.4177 6.25471 28.511 7.21316 25.5738 9.67701C23.9617 11.6522 22.2734 14.141 21.6966 15.9233C20.7669 18.2786 20.6422 19.5363 20.704 21.7345L20.8901 25.6501C21.0739 27.311 21.0549 28.1467 20.8901 29.5347L19.4943 33.9785L18.0674 38.469L16.6406 42.9595L12.4221 57.5964L9.25826 67.6651Z" fill="url(#paint2_linear_2_4)"/>
<path d="M9.25826 67.6651C6.82985 64.523 5.22041 63.0646 2 60.8905H6.03237C2.3 53.5574 1.25852 44.6252 5.72218 28.3227C5.89263 34.8491 6.10169 38.4933 8.6379 43.7364C7.35145 34.027 6.96234 28.4842 11.6467 18.4715C11.5429 21.4823 11.7233 23.0165 12.205 25.6501C11.9844 21.1226 12.5356 19.0665 14.2522 15.9233C13.0746 20.5579 13.3044 22.9214 14.8726 26.831C15.0839 12.3752 21.3247 4.33413 34.445 1.62829C39.7385 0.713894 42.7065 0.870918 48 1.62829C45.6196 3.50446 42.7953 7.02831 44.7741 6.94231C43.9469 8.56508 43.2886 10.106 42.5189 11.9078C41.9087 13.3362 41.2285 14.9285 40.3385 16.8556C37.4091 24.1884 34.8208 30.5857 26.8766 34.7244C29.949 34.7226 31.7528 33.8671 35.0034 31.9897C34.7497 32.9334 34.5242 33.8378 34.3064 34.7114L34.3063 34.7117C32.6934 41.1807 31.5033 45.954 22.441 52.4067C26.5464 51.6191 28.7251 50.3593 32.4289 46.9062C29.63 52.1659 27.3515 55.1326 20.5489 59.7717C22.3677 59.7377 23.1734 60.0275 24.4572 60.7662C19.5665 62.5244 16.9361 63.9303 12.6841 67.8721M9.25826 67.6651L8.48281 69.8715M9.25826 67.6651L12.4221 57.5964L16.6406 42.9595L18.0674 38.469L19.4943 33.9785L20.8901 29.5347C21.0549 28.1467 21.0739 27.311 20.8901 25.6501L20.704 21.7345C20.6422 19.5363 20.7669 18.2786 21.6966 15.9233C22.2734 14.141 23.9617 11.6522 25.5738 9.67701C28.511 7.21316 30.4177 6.25471 34.0418 4.89128C37.0872 4.11802 38.8708 3.79619 42.2306 3.86577C41.2099 5.264 40.8198 6.06196 40.3385 7.50168C39.8689 9.08539 39.6649 9.9579 39.3149 11.5105L38.1362 15.3018C36.6308 19.3598 35.4067 21.4323 32.3358 24.6557C30.1025 26.4877 28.7552 27.3187 26.2252 28.5402C24.072 29.2336 23.1159 29.9849 21.8827 31.9897L20.766 34.2893L17.8503 43.146C15.7664 51.2566 14.8298 56.3137 13.5401 63.2774C13.2742 64.7134 12.9933 66.2304 12.6841 67.8721M8.48281 69.8715L7.70735 69.6539L7.118 71.4874L7.55226 71.5807M8.48281 69.8715L12.143 70.9902M7.55226 71.5807C6.47969 73.2958 5.79177 74.1294 4.29535 75.2166C5.13294 79.3776 5.43154 81.7399 5.69117 86C8.22882 82.6552 9.71569 80.8328 12.7013 77.8581C12.0412 76.0191 11.8599 74.9542 11.9568 72.9791M7.55226 71.5807L11.9568 72.9791M11.9568 72.9791L12.7323 73.1345L13.2286 71.3631L12.143 70.9902M12.143 70.9902L12.6392 67.9137C12.6542 67.8998 12.6692 67.8859 12.6841 67.8721" stroke="#898989" stroke-opacity="0.5"/>
<defs>
<linearGradient id="paint0_linear_2_4" x1="24.9845" y1="0.975691" x2="25.0156" y2="86.0243" gradientUnits="userSpaceOnUse">
<stop offset="0.322917" stop-color="#B492DF"/>
<stop offset="1" stop-color="#1E1AFF"/>
</linearGradient>
<linearGradient id="paint1_linear_2_4" x1="24.9845" y1="0.975691" x2="25.0156" y2="86.0243" gradientUnits="userSpaceOnUse">
<stop offset="0.322917" stop-color="#B492DF"/>
<stop offset="1" stop-color="#1E1AFF"/>
</linearGradient>
<linearGradient id="paint2_linear_2_4" x1="39.7802" y1="4.60483" x2="5.70721" y2="85.979" gradientUnits="userSpaceOnUse">
<stop stop-color="#110EA2"/>
<stop offset="1" stop-color="#262555"/>
</linearGradient>
</defs>
</svg>
