<svg width="36" height="46" viewBox="0 0 36 46" fill="none" xmlns="http://www.w3.org/2000/svg">
<path d="M18 23H34M34 23L27.1429 30M34 23L27.1429 16M34 9V6.66667C34 5.42899 33.5184 4.242 32.6611 3.36683C31.8038 2.49167 30.641 2 29.4286 2H6.57143C5.35901 2 4.19625 2.49167 3.33894 3.36683C2.48163 4.242 2 5.42899 2 6.66667V39.3333C2 40.571 2.48163 41.758 3.33894 42.6332C4.19625 43.5083 5.35901 44 6.57143 44H29.4286C30.641 44 31.8038 43.5083 32.6611 42.6332C33.5184 41.758 34 40.571 34 39.3333V37" stroke="#090074" stroke-width="3" stroke-linecap="round" stroke-linejoin="round"/>
</svg>
