<svg width="36" height="36" viewBox="0 0 36 36" fill="none" xmlns="http://www.w3.org/2000/svg">
<path d="M35 35L23.6667 23.6667M1 14.2222C1 15.9586 1.342 17.678 2.00648 19.2821C2.67096 20.8863 3.6449 22.3439 4.8727 23.5717C6.1005 24.7995 7.5581 25.7735 9.1623 26.438C10.7665 27.1024 12.4859 27.4444 14.2222 27.4444C15.9586 27.4444 17.678 27.1024 19.2821 26.438C20.8863 25.7735 22.3439 24.7995 23.5717 23.5717C24.7995 22.3439 25.7735 20.8863 26.438 19.2821C27.1024 17.678 27.4444 15.9586 27.4444 14.2222C27.4444 12.4859 27.1024 10.7665 26.438 9.1623C25.7735 7.5581 24.7995 6.1005 23.5717 4.8727C22.3439 3.6449 20.8863 2.67096 19.2821 2.00648C17.678 1.342 15.9586 1 14.2222 1C12.4859 1 10.7665 1.342 9.1623 2.00648C7.5581 2.67096 6.1005 3.6449 4.8727 4.8727C3.6449 6.1005 2.67096 7.5581 2.00648 9.1623C1.342 10.7665 1 12.4859 1 14.2222Z" stroke="#6D6DB3" stroke-width="2" stroke-linecap="round" stroke-linejoin="round"/>
</svg>
